<svg xmlns="http://www.w3.org/2000/svg" xmlns:xlink="http://www.w3.org/1999/xlink" width="1080" zoomAndPan="magnify" viewBox="0 0 810 809.999993" height="1080" preserveAspectRatio="xMidYMid meet" version="1.0"><defs><g/><clipPath id="50ae1460a3"><path d="M 810 75 L 810 735 C 810 776.421875 776.421875 810 735 810 L 75 810 C 33.578125 810 0 776.421875 0 735 L 0 75 C 0 33.578125 33.578125 0 75 0 L 735 0 C 776.421875 0 810 33.578125 810 75 Z M 810 75 " clip-rule="nonzero"/></clipPath><clipPath id="950418b8d6"><path d="M 0 0 L 810 0 L 810 810 L 0 810 Z M 0 0 " clip-rule="nonzero"/></clipPath><clipPath id="b5337773b7"><path d="M 810 75 L 810 735 C 810 776.421875 776.421875 810 735 810 L 75 810 C 33.578125 810 0 776.421875 0 735 L 0 75 C 0 33.578125 33.578125 0 75 0 L 735 0 C 776.421875 0 810 33.578125 810 75 Z M 810 75 " clip-rule="nonzero"/></clipPath><clipPath id="11e4f8452c"><rect x="0" width="810" y="0" height="810"/></clipPath><clipPath id="3be1fb1094"><rect x="0" width="617" y="0" height="810"/></clipPath></defs><g clip-path="url(#50ae1460a3)"><g transform="matrix(1, 0, 0, 1, 0, 0.000000000000039746)"><g clip-path="url(#11e4f8452c)"><g clip-path="url(#950418b8d6)"><g clip-path="url(#b5337773b7)"><rect x="-178.2" width="1166.4" fill="#ff9500" height="1166.39999" y="-178.199998" fill-opacity="1"/></g></g></g></g></g><g transform="matrix(1, 0, 0, 1, 90, 0.000000000000039746)"><g clip-path="url(#3be1fb1094)"><g fill="#ffffff" fill-opacity="1"><g transform="translate(0.749999, 716.050328)"><g><path d="M 140.203125 0 C 112.742188 0 91.859375 -7.15625 77.546875 -21.46875 C 63.234375 -35.78125 56.078125 -56.375 56.078125 -83.25 L 56.078125 -534.53125 C 56.078125 -561.40625 63.234375 -582 77.546875 -596.3125 C 91.859375 -610.625 112.742188 -617.78125 140.203125 -617.78125 L 354.015625 -617.78125 C 398.410156 -617.78125 436.234375 -611.207031 467.484375 -598.0625 C 498.742188 -584.914062 522.550781 -566.363281 538.90625 -542.40625 C 555.269531 -518.457031 563.453125 -490.421875 563.453125 -458.296875 C 563.453125 -422.078125 553.082031 -391.113281 532.34375 -365.40625 C 511.601562 -339.707031 483.414062 -322.179688 447.78125 -312.828125 L 447.78125 -326.859375 C 489.84375 -319.265625 522.410156 -302.320312 545.484375 -276.03125 C 568.554688 -249.738281 580.09375 -216.144531 580.09375 -175.25 C 580.09375 -120.925781 560.664062 -78.132812 521.8125 -46.875 C 482.96875 -15.625 429.957031 0 362.78125 0 Z M 210.3125 -118.296875 L 340.875 -118.296875 C 370.664062 -118.296875 392.425781 -123.988281 406.15625 -135.375 C 419.882812 -146.769531 426.75 -163.859375 426.75 -186.640625 C 426.75 -209.429688 419.882812 -226.375 406.15625 -237.46875 C 392.425781 -248.570312 370.664062 -254.125 340.875 -254.125 L 210.3125 -254.125 Z M 210.3125 -372.421875 L 325.09375 -372.421875 C 354.3125 -372.421875 375.78125 -377.675781 389.5 -388.1875 C 403.226562 -398.707031 410.09375 -414.773438 410.09375 -436.390625 C 410.09375 -458.003906 403.226562 -473.921875 389.5 -484.140625 C 375.78125 -494.367188 354.3125 -499.484375 325.09375 -499.484375 L 210.3125 -499.484375 Z M 210.3125 -372.421875 "/></g></g></g></g></g></svg>